M48
;Layer_Color=9474304
;FILE_FORMAT=2:5
INCH,LZ
;TYPE=PLATED
T1F00S00C0.02756
T2F00S00C0.03150
T3F00S00C0.07677
T4F00S00C0.10630
%
T01
X0165354Y0077559
Y0100394
T02
X0010236Y0003465
Y0013465
Y0023465
Y0033465
Y0043465
Y0053465
Y0063465
Y0073465
X003937Y0072677
Y0082677
X0053917Y0059291
X0063917
X0073917
X0083917
X0093917
X0103917
X0113917
X0113051Y0119291
X0103917
X0093917
X0083917
X0073917
X0063917
X0053917
X0056929Y0023622
X0046929
X0036929
X0026929
X0066929
X0076929
X0123917Y0059291
X0133917
X0143917
X0153917
X0163917
X0173917
X0183917
X0187205Y0027559
X0177205
X0167205
X0157205
X0153917Y0119291
X0143917
X0133917
X0123917
X0163917
X0173917
X0183917
T03
X0102362Y0011811
Y0031496
X0204724Y0049213
Y0068898
T04
X001378Y009252
X0206693
M30
