G04*
G04 #@! TF.GenerationSoftware,Altium Limited,Altium Designer,20.0.13 (296)*
G04*
G04 Layer_Color=16711935*
%FSLAX25Y25*%
%MOIN*%
G70*
G01*
G75*
%ADD18O,0.11627X0.10052*%
%ADD19R,0.11627X0.10052*%
%ADD20O,0.07099X0.05524*%
%ADD21R,0.07099X0.05524*%
%ADD22O,0.05524X0.07099*%
%ADD23R,0.05524X0.07099*%
%ADD24R,0.06706X0.05131*%
%ADD25O,0.06706X0.05131*%
%ADD26C,0.11824*%
D18*
X102362Y11811D02*
D03*
X204724Y49213D02*
D03*
D19*
X102362Y31496D02*
D03*
X204724Y68898D02*
D03*
D20*
X10236Y3465D02*
D03*
Y13465D02*
D03*
Y23465D02*
D03*
Y33465D02*
D03*
Y43465D02*
D03*
Y53465D02*
D03*
Y63465D02*
D03*
X39370Y82677D02*
D03*
D21*
X10236Y73465D02*
D03*
X39370Y72677D02*
D03*
D22*
X53917Y59291D02*
D03*
X63917D02*
D03*
X73917D02*
D03*
X83917D02*
D03*
X93917D02*
D03*
X103917D02*
D03*
X113917D02*
D03*
X123917D02*
D03*
X133917D02*
D03*
X143917D02*
D03*
X153917D02*
D03*
X163917D02*
D03*
X173917D02*
D03*
X183917D02*
D03*
X53917Y119291D02*
D03*
X63917D02*
D03*
X73917D02*
D03*
X83917D02*
D03*
X93917D02*
D03*
X103917D02*
D03*
X113051D02*
D03*
X123917D02*
D03*
X133917D02*
D03*
X143917D02*
D03*
X153917D02*
D03*
X163917D02*
D03*
X173917D02*
D03*
X187205Y27559D02*
D03*
X177205D02*
D03*
X167205D02*
D03*
X36929Y23622D02*
D03*
X46929D02*
D03*
X56929D02*
D03*
X66929D02*
D03*
X76929D02*
D03*
D23*
X183917Y119291D02*
D03*
X157205Y27559D02*
D03*
X26929Y23622D02*
D03*
D24*
X165354Y100394D02*
D03*
D25*
Y77559D02*
D03*
D26*
X13780Y92520D02*
D03*
X206693D02*
D03*
M02*
