G04*
G04 #@! TF.GenerationSoftware,Altium Limited,Altium Designer,20.0.13 (296)*
G04*
G04 Layer_Physical_Order=1*
G04 Layer_Color=255*
%FSLAX25Y25*%
%MOIN*%
G70*
G01*
G75*
%ADD14R,0.06102X0.02362*%
%ADD15R,0.07087X0.04724*%
%ADD27C,0.02362*%
%ADD28C,0.05906*%
%ADD29O,0.10827X0.09252*%
%ADD30R,0.10827X0.09252*%
%ADD31O,0.06299X0.04724*%
%ADD32R,0.06299X0.04724*%
%ADD33O,0.04724X0.06299*%
%ADD34R,0.04724X0.06299*%
%ADD35R,0.05906X0.04331*%
%ADD36O,0.05906X0.04331*%
%ADD37C,0.11024*%
D14*
X19980Y113386D02*
D03*
Y117323D02*
D03*
Y121260D02*
D03*
Y125197D02*
D03*
D15*
X4724Y130315D02*
D03*
Y108268D02*
D03*
D27*
X39424Y82677D02*
Y114197D01*
Y82677D02*
X43536D01*
X39370D02*
X39424D01*
X56929Y23339D02*
X60155D01*
X19924Y107839D02*
Y113386D01*
X56929Y23339D02*
Y23622D01*
X60155Y23339D02*
X62205Y21289D01*
Y19429D02*
Y21289D01*
Y19429D02*
X63524Y18110D01*
X69794D01*
X71724Y20039D01*
Y40139D01*
X59124Y52739D02*
X71724Y40139D01*
X59124Y52739D02*
Y62939D01*
X109224Y113039D01*
X161024D01*
X163917Y115933D01*
Y119291D01*
X28424Y125197D02*
X39424Y114197D01*
X19980Y125197D02*
X28424D01*
X35948Y72677D02*
X39370D01*
X33586Y75039D02*
X35948Y72677D01*
X33586Y75039D02*
Y113098D01*
X25424Y121260D02*
X33586Y113098D01*
X19980Y121260D02*
X25424D01*
X46929Y20039D02*
Y23622D01*
Y20039D02*
X52402Y14567D01*
X76351D01*
X81824Y20039D01*
Y28139D01*
X98924Y45239D01*
Y62839D01*
X103524Y67439D01*
X142730D01*
X173917Y98627D01*
Y119291D01*
X66929Y23622D02*
Y29139D01*
X44924Y51145D02*
X66929Y29139D01*
X44924Y51145D02*
Y81289D01*
X43536Y82677D02*
X44924Y81289D01*
X16024Y117323D02*
X19980D01*
X14524Y115823D02*
X16024Y117323D01*
X14524Y108039D02*
Y115823D01*
X5824Y99339D02*
X14524Y108039D01*
X5824Y87539D02*
Y99339D01*
Y87539D02*
X15824Y77539D01*
Y35039D02*
Y77539D01*
X14249Y33465D02*
X15824Y35039D01*
X10236Y33465D02*
X14249D01*
X19924Y113386D02*
X19980D01*
X19924Y107839D02*
X21724Y106039D01*
Y29365D02*
Y106039D01*
X15824Y23465D02*
X21724Y29365D01*
X10236Y23465D02*
X15824D01*
D28*
X157205Y24058D02*
Y27559D01*
Y24058D02*
X161024Y20239D01*
X192624D01*
X214524Y42139D01*
Y65398D01*
X211024Y68898D02*
X214524Y65398D01*
X204724Y68898D02*
X211024D01*
X176024Y49213D02*
X204724D01*
X167205Y40394D02*
X176024Y49213D01*
X167205Y27559D02*
Y40394D01*
D29*
X102362Y11811D02*
D03*
X204724Y49213D02*
D03*
D30*
X102362Y31496D02*
D03*
X204724Y68898D02*
D03*
D31*
X10236Y3465D02*
D03*
Y13465D02*
D03*
Y23465D02*
D03*
Y33465D02*
D03*
Y43465D02*
D03*
Y53465D02*
D03*
Y63465D02*
D03*
X39370Y82677D02*
D03*
D32*
X10236Y73465D02*
D03*
X39370Y72677D02*
D03*
D33*
X53917Y59291D02*
D03*
X63917D02*
D03*
X73917D02*
D03*
X83917D02*
D03*
X93917D02*
D03*
X103917D02*
D03*
X113917D02*
D03*
X123917D02*
D03*
X133917D02*
D03*
X143917D02*
D03*
X153917D02*
D03*
X163917D02*
D03*
X173917D02*
D03*
X183917D02*
D03*
X53917Y119291D02*
D03*
X63917D02*
D03*
X73917D02*
D03*
X83917D02*
D03*
X93917D02*
D03*
X103917D02*
D03*
X113051D02*
D03*
X123917D02*
D03*
X133917D02*
D03*
X143917D02*
D03*
X153917D02*
D03*
X163917D02*
D03*
X173917D02*
D03*
X187205Y27559D02*
D03*
X177205D02*
D03*
X167205D02*
D03*
X36929Y23622D02*
D03*
X46929D02*
D03*
X56929D02*
D03*
X66929D02*
D03*
X76929D02*
D03*
D34*
X183917Y119291D02*
D03*
X157205Y27559D02*
D03*
X26929Y23622D02*
D03*
D35*
X165354Y100394D02*
D03*
D36*
Y77559D02*
D03*
D37*
X13780Y92520D02*
D03*
X206693D02*
D03*
M02*
