G04*
G04 #@! TF.GenerationSoftware,Altium Limited,Altium Designer,20.0.13 (296)*
G04*
G04 Layer_Physical_Order=2*
G04 Layer_Color=16711680*
%FSLAX25Y25*%
%MOIN*%
G70*
G01*
G75*
%ADD27C,0.02362*%
%ADD28C,0.05906*%
%ADD29O,0.10827X0.09252*%
%ADD30R,0.10827X0.09252*%
%ADD31O,0.06299X0.04724*%
%ADD32R,0.06299X0.04724*%
%ADD33O,0.04724X0.06299*%
%ADD34R,0.04724X0.06299*%
%ADD35R,0.05906X0.04331*%
%ADD36O,0.05906X0.04331*%
%ADD37C,0.11024*%
D27*
X70084Y29139D02*
X84646Y43701D01*
X16398Y29139D02*
X70084D01*
X105185Y43701D02*
X113917Y52433D01*
X84646Y43701D02*
X105185D01*
X136024Y42339D02*
X139324D01*
X84803Y31496D02*
X102362D01*
X76929Y23622D02*
X84803Y31496D01*
X103917Y55039D02*
Y59291D01*
X98917Y50039D02*
X103917Y55039D01*
X61524Y50039D02*
X98917D01*
X44949Y33465D02*
X61524Y50039D01*
X10236Y33465D02*
X44949D01*
X6024Y13465D02*
X10236D01*
X4724Y12165D02*
X6024Y13465D01*
X4724Y1439D02*
Y12165D01*
Y1439D02*
X8524Y-2361D01*
X74024D01*
X88195Y11811D01*
X102362D01*
X129124Y49239D02*
X136024Y42339D01*
X129124Y49239D02*
Y66039D01*
X122486Y72677D02*
X129124Y66039D01*
X39370Y72677D02*
X122486D01*
X113917Y52433D02*
Y59291D01*
X10724Y23465D02*
X16398Y29139D01*
X10236Y23465D02*
X10724D01*
X10236Y3465D02*
X71024D01*
X76929Y9370D01*
Y23622D01*
X10236Y13465D02*
X63524D01*
X66929Y16870D01*
Y23622D01*
D28*
X187205Y27559D02*
Y36158D01*
X33778Y100394D02*
X165354D01*
X24524Y91139D02*
X33778Y100394D01*
X24524Y70039D02*
Y91139D01*
X17949Y63465D02*
X24524Y70039D01*
X10236Y63465D02*
X17949D01*
X165354Y77559D02*
X186024D01*
X192924Y70659D01*
Y55039D02*
Y70659D01*
Y55039D02*
X198750Y49213D01*
X204724D01*
X165354Y100394D02*
X180770D01*
X204724Y76439D01*
Y68898D02*
Y76439D01*
X177205Y17992D02*
Y27559D01*
X171024Y11811D02*
X177205Y17992D01*
X102362Y11811D02*
X171024D01*
X181024Y42339D02*
X187205Y36158D01*
X139324Y42339D02*
X181024D01*
X128480Y31496D02*
X139324Y42339D01*
X102362Y31496D02*
X128480D01*
D29*
X102362Y11811D02*
D03*
X204724Y49213D02*
D03*
D30*
X102362Y31496D02*
D03*
X204724Y68898D02*
D03*
D31*
X10236Y3465D02*
D03*
Y13465D02*
D03*
Y23465D02*
D03*
Y33465D02*
D03*
Y43465D02*
D03*
Y53465D02*
D03*
Y63465D02*
D03*
X39370Y82677D02*
D03*
D32*
X10236Y73465D02*
D03*
X39370Y72677D02*
D03*
D33*
X53917Y59291D02*
D03*
X63917D02*
D03*
X73917D02*
D03*
X83917D02*
D03*
X93917D02*
D03*
X103917D02*
D03*
X113917D02*
D03*
X123917D02*
D03*
X133917D02*
D03*
X143917D02*
D03*
X153917D02*
D03*
X163917D02*
D03*
X173917D02*
D03*
X183917D02*
D03*
X53917Y119291D02*
D03*
X63917D02*
D03*
X73917D02*
D03*
X83917D02*
D03*
X93917D02*
D03*
X103917D02*
D03*
X113051D02*
D03*
X123917D02*
D03*
X133917D02*
D03*
X143917D02*
D03*
X153917D02*
D03*
X163917D02*
D03*
X173917D02*
D03*
X187205Y27559D02*
D03*
X177205D02*
D03*
X167205D02*
D03*
X36929Y23622D02*
D03*
X46929D02*
D03*
X56929D02*
D03*
X66929D02*
D03*
X76929D02*
D03*
D34*
X183917Y119291D02*
D03*
X157205Y27559D02*
D03*
X26929Y23622D02*
D03*
D35*
X165354Y100394D02*
D03*
D36*
Y77559D02*
D03*
D37*
X13780Y92520D02*
D03*
X206693D02*
D03*
M02*
